<svg width="24" height="24" viewBox="0 0 24 24" fill="none" xmlns="http://www.w3.org/2000/svg">
    <path d="M3.6 18H5.4V16.2H18.6V18H20.4V13.38C20.4 12.96 20.32 12.5648 20.16 12.1944C20 11.8248 19.78 11.5 19.5 11.22V8.4C19.5 7.74 19.2652 7.1748 18.7956 6.7044C18.3252 6.2348 17.76 6 17.1 6H13.2C12.98 6 12.77 6.03 12.57 6.09C12.37 6.15 12.18 6.24 12 6.36C11.82 6.24 11.63 6.15 11.43 6.09C11.23 6.03 11.02 6 10.8 6H6.9C6.24 6 5.6752 6.2348 5.2056 6.7044C4.7352 7.1748 4.5 7.74 4.5 8.4V11.22C4.22 11.5 4 11.8248 3.84 12.1944C3.68 12.5648 3.6 12.96 3.6 13.38V18ZM5.4 14.4V13.2C5.4 12.86 5.5148 12.5748 5.7444 12.3444C5.9748 12.1148 6.26 12 6.6 12H17.4C17.74 12 18.0248 12.1148 18.2544 12.3444C18.4848 12.5748 18.6 12.86 18.6 13.2V14.4H5.4ZM6.3 10.2V7.8H11.1V10.2H6.3ZM12.9 10.2V7.8H17.7V10.2H12.9ZM2.4 24C1.74 24 1.1752 23.7652 0.7056 23.2956C0.2352 22.8252 0 22.26 0 21.6V2.4C0 1.74 0.2352 1.1748 0.7056 0.7044C1.1752 0.2348 1.74 0 2.4 0H21.6C22.26 0 22.8252 0.2348 23.2956 0.7044C23.7652 1.1748 24 1.74 24 2.4V21.6C24 22.26 23.7652 22.8252 23.2956 23.2956C22.8252 23.7652 22.26 24 21.6 24H2.4ZM2.4 21.6H21.6V2.4H2.4V21.6Z" fill="#999999"/>
</svg>
