<svg width="24" height="24" viewBox="0 0 24 24" fill="none" xmlns="http://www.w3.org/2000/svg">
    <g clip-path="url(#clip0_1_561)">
        <path d="M10 2L9 3H4V5H5V20C5 20.5222 5.19133 21.0546 5.56836 21.4316C5.94539 21.8087 6.47778 22 7 22H17C17.5222 22 18.0546 21.8087 18.4316 21.4316C18.8087 21.0546 19 20.5222 19 20V5H20V3H15L14 2H10ZM7 5H17V20H7V5ZM9 7V18H11V7H9ZM13 7V18H15V7H13Z" fill="#999999"/>
    </g>
    <defs>
        <clipPath id="clip0_1_561">
            <rect width="24" height="24" fill="white"/>
        </clipPath>
    </defs>
</svg>
