<svg width="28" height="28" viewBox="0 0 28 28" fill="none" xmlns="http://www.w3.org/2000/svg">
    <rect width="28" height="28" rx="14" fill="#444444" fill-opacity="0.1"/>
    <path d="M14.3333 21.9987C18.9357 21.9987 22.6667 18.2677 22.6667 13.6654C22.6667 9.06299 18.9357 5.33203 14.3333 5.33203C9.73096 5.33203 6 9.06299 6 13.6654C6 18.2677 9.73096 21.9987 14.3333 21.9987Z" stroke="#444444" stroke-width="1.5"/>
    <path d="M10.25 18.1654C12.1931 16.1302 15.786 16.0344 17.75 18.1654M16.0792 11.9154C16.0792 13.0659 15.1452 13.9987 13.9929 13.9987C12.8407 13.9987 11.9066 13.0659 11.9066 11.9154C11.9066 10.7648 12.8407 9.83203 13.9929 9.83203C15.1452 9.83203 16.0792 10.7648 16.0792 11.9154Z" stroke="#444444" stroke-width="1.5" stroke-linecap="round"/>
</svg>
