
<svg width="28" height="28" viewBox="0 0 28 28" fill="none" xmlns="http://www.w3.org/2000/svg">
    <rect width="28" height="28" rx="14" fill="#DC3545" fill-opacity="0.1"/>
    <path d="M16.5 18.6875C16.4387 20.2307 15.1526 21.5412 13.4297 21.499C13.0288 21.4892 12.5334 21.3495 11.5426 21.07C9.15801 20.3973 7.08796 19.2669 6.5913 16.7346C6.5 16.2692 6.5 15.7453 6.5 14.6977V13.3022C6.5 12.2547 6.5 11.7309 6.5913 11.2654C7.08796 8.73304 9.15801 7.60263 11.5426 6.93002C12.5334 6.65053 13.0288 6.51079 13.4297 6.50099C15.1526 6.45884 16.4387 7.76922 16.5 9.31251" stroke="#DC3545" stroke-width="1.5" stroke-linecap="round"/>
    <path d="M21.5 14.0013H12.3334M21.5 14.0013C21.5 13.4178 19.8381 12.3276 19.4167 11.918M21.5 14.0013C21.5 14.5848 19.8381 15.6751 19.4167 16.0846" stroke="#DC3545" stroke-width="1.5" stroke-linecap="round" stroke-linejoin="round"/>
</svg>
